<?xml version="1.0" standalone="no"?>
<!DOCTYPE svg PUBLIC "-//W3C//DTD SVG 20010904//EN"
 "http://www.w3.org/TR/2001/REC-SVG-20010904/DTD/svg10.dtd">
<svg version="1.0" xmlns="http://www.w3.org/2000/svg"
 width="192.000000pt" height="192.000000pt" viewBox="0 0 192.000000 192.000000"
 preserveAspectRatio="xMidYMid meet">
<metadata>
Created by potrace 1.14, written by Peter Selinger 2001-2017
</metadata>
<g transform="translate(0.000000,192.000000) scale(0.100000,-0.100000)"
fill="#000000" stroke="none">
<path d="M140 1913 c-38 -8 -101 -63 -121 -107 -18 -39 -19 -85 -19 -836 0
-517 4 -808 10 -832 14 -48 52 -94 100 -118 37 -19 68 -20 845 -20 765 0 809
1 849 18 50 23 92 69 106 120 14 53 14 1593 -1 1647 -14 51 -73 110 -124 124
-39 11 -1588 14 -1645 4z"/>
</g>
</svg>
